<?xml version="1.0" encoding="utf-8"?>
<!-- Generator: Adobe Illustrator 23.0.0, SVG Export Plug-In . SVG Version: 6.00 Build 0)  -->
<svg version="1.1" id="Layer_1" xmlns="http://www.w3.org/2000/svg" xmlns:xlink="http://www.w3.org/1999/xlink" x="0px" y="0px"
	 viewBox="0 0 692 42" style="enable-background:new 0 0 692 42;" xml:space="preserve">
<style type="text/css">
	.st0{fill:#E1615D;}
</style>
<g>
	<path class="st0" d="M14.9,30.7V24H1.5V3.9h6.7v13.4h6.7V3.9h6.7v26.9H14.9z M1.5,37.5v-6.7h13.4v6.7H1.5z"/>
	<path class="st0" d="M35.1,24v13.4h-6.7V3.9h20.2V24H35.1z M41.8,10.6h-6.7v6.7h6.7V10.6z"/>
	<path class="st0" d="M55.3,37.5V3.9h20.2v33.6H55.3z M68.7,10.6H62v20.2h6.7V10.6z"/>
	<path class="st0" d="M82.1,37.5V3.9h20.2v13.4h6.7v20.2H82.1z M95.6,10.6h-6.7v6.7h6.7V10.6z M102.3,24H88.9v6.7h13.4V24z"/>
	<path class="st0" d="M115.7,37.5V3.9h20.2v6.7h-13.4v6.7h6.7V24h-6.7v6.7h13.4v6.7H115.7z"/>
	<path class="st0" d="M156.1,37.5V24h-6.7v13.4h-6.7V3.9h6.7v13.4h6.7V3.9h6.7v33.6H156.1z"/>
	<path class="st0" d="M169.5,37.5V3.9h6.7v13.4h13.4v20.2H169.5z M182.9,24h-6.7v6.7h6.7V24z"/>
	<path class="st0" d="M203.1,10.6v6.7h-6.7v-6.7H203.1z M203.1,24v6.7h-6.7V24H203.1z"/>
	<path class="st0" d="M236.7,37.5V3.9h20.2v33.6H236.7z M250.1,10.6h-6.7v20.2h6.7V10.6z"/>
	<path class="st0" d="M263.6,37.5V3.9h20.2v6.7h-13.4v26.9H263.6z"/>
	<path class="st0" d="M297.2,24v13.4h-6.7V3.9h20.2V24H297.2z M303.9,10.6h-6.7v6.7h6.7V10.6z"/>
	<path class="st0" d="M317.3,37.5V3.9h20.2v33.6H317.3z M330.8,10.6h-6.7v20.2h6.7V10.6z"/>
	<path class="st0" d="M350.9,3.9v6.7h6.7v6.7h6.7V24h-6.7v-6.7h-6.7v20.2h-6.7V3.9H350.9z M364.4,17.3v-6.7h6.7V3.9h6.7v33.6h-6.7
		V17.3H364.4z"/>
	<path class="st0" d="M398,37.5V24h-6.7v13.4h-6.7V3.9h6.7v13.4h6.7V3.9h6.7v33.6H398z"/>
	<path class="st0" d="M411.4,37.5V3.9h20.2v33.6H411.4z M424.9,10.6h-6.7v20.2h6.7V10.6z"/>
	<path class="st0" d="M438.3,37.5V3.9h20.2v6.7H445v6.7h6.7V24H445v6.7h13.4v6.7H438.3z"/>
	<path class="st0" d="M492.1,37.5V3.9h20.2v6.7h-13.4v20.2h13.4v6.7H492.1z"/>
	<path class="st0" d="M532.4,37.5V10.6h-6.7v26.9h-6.7V3.9h20.2v33.6H532.4z"/>
	<path class="st0" d="M559.3,37.5V24h-6.7v13.4h-6.7V3.9H566v33.6H559.3z M559.3,10.6h-6.7v6.7h6.7V10.6z"/>
	<path class="st0" d="M572.7,37.5V3.9h20.2v6.7h-13.4v20.2h13.4v6.7H572.7z"/>
	<path class="st0" d="M599.6,3.9h6.7V24h6.7v6.7h-6.7v6.7h-6.7V3.9z M613,24v-6.7h6.7V3.9h6.7v33.6h-6.7V24H613z"/>
	<path class="st0" d="M633.2,37.5V3.9h20.2v6.7h-13.4v6.7h20.2v20.2H633.2z M653.3,24h-13.4v6.7h13.4V24z"/>
	<path class="st0" d="M666.8,37.5V3.9h20.2v33.6H666.8z M680.2,10.6h-6.7v20.2h6.7V10.6z"/>
</g>
</svg>
