<?xml version="1.0" encoding="utf-8"?>
<!-- Generator: Adobe Illustrator 23.0.0, SVG Export Plug-In . SVG Version: 6.00 Build 0)  -->
<svg version="1.1" id="Layer_1" xmlns="http://www.w3.org/2000/svg" xmlns:xlink="http://www.w3.org/1999/xlink" x="0px" y="0px"
	 viewBox="0 0 784 42" style="enable-background:new 0 0 784 42;" xml:space="preserve">
<style type="text/css">
	.st4{fill:#A0497E;}
</style>
<g>
	<path class="st4" d="M14.9,30.7V24H1.5V3.9h6.7v13.4h6.7V3.9h6.7v26.9H14.9z M1.5,37.5v-6.7h13.4v6.7H1.5z"/>
	<path class="st4" d="M35.1,24v13.4h-6.7V3.9h20.2V24H35.1z M41.8,10.6h-6.7v6.7h6.7V10.6z"/>
	<path class="st4" d="M55.3,37.5V3.9h20.2v33.6H55.3z M68.7,10.6H62v20.2h6.7V10.6z"/>
	<path class="st4" d="M82.1,37.5V3.9h20.2v13.4h6.7v20.2H82.1z M95.6,10.6h-6.7v6.7h6.7V10.6z M102.3,24H88.9v6.7h13.4V24z"/>
	<path class="st4" d="M115.7,37.5V3.9h20.2v6.7h-13.4v6.7h6.7V24h-6.7v6.7h13.4v6.7H115.7z"/>
	<path class="st4" d="M156.1,37.5V24h-6.7v13.4h-6.7V3.9h6.7v13.4h6.7V3.9h6.7v33.6H156.1z"/>
	<path class="st4" d="M169.5,37.5V3.9h6.7v13.4h13.4v20.2H169.5z M182.9,24h-6.7v6.7h6.7V24z"/>
	<path class="st4" d="M203.1,10.6v6.7h-6.7v-6.7H203.1z M203.1,24v6.7h-6.7V24H203.1z"/>
	<path class="st4" d="M236.7,37.5V3.9h20.2v6.7h-13.4v6.7h20.2v20.2H236.7z M256.9,24h-13.4v6.7h13.4V24z"/>
	<path class="st4" d="M270.3,37.5V3.9h20.2v33.6H270.3z M283.7,10.6H277v20.2h6.7V10.6z"/>
	<path class="st4" d="M297.2,37.5V10.6h6.7v26.9H297.2z M310.6,37.5V10.6h-6.7V3.9h13.4v33.6H310.6z"/>
	<path class="st4" d="M324.1,37.5V3.9h6.7v13.4h13.4v20.2H324.1z M337.5,24h-6.7v6.7h6.7V24z"/>
	<path class="st4" d="M350.9,37.5V3.9h6.7v26.9h6.7V3.9h6.7v26.9h6.7V3.9h6.7v33.6H350.9z"/>
	<path class="st4" d="M391.3,37.5V3.9h20.2v6.7H398v6.7h6.7V24H398v6.7h13.4v6.7H391.3z"/>
	<path class="st4" d="M418.1,37.5v-6.7h6.7V24h6.7v13.4H418.1z"/>
	<path class="st4" d="M478.6,37.5V24h-13.4V3.9h6.7v13.4h6.7V3.9h6.7v33.6H478.6z"/>
	<path class="st4" d="M492.1,37.5V3.9h20.2v6.7h-13.4v6.7h6.7V24h-6.7v6.7h13.4v6.7H492.1z"/>
	<path class="st4" d="M525.7,3.9v6.7h6.7v6.7h6.7V24h-6.7v-6.7h-6.7v20.2h-6.7V3.9H525.7z M539.1,17.3v-6.7h6.7V3.9h6.7v33.6h-6.7
		V17.3H539.1z"/>
	<path class="st4" d="M586.1,37.5V3.9h20.2v6.7h-13.4v20.2h13.4v6.7H586.1z"/>
	<path class="st4" d="M626.5,37.5V10.6h-6.7v26.9H613V3.9h20.2v33.6H626.5z"/>
	<path class="st4" d="M653.3,37.5V24h-6.7v13.4h-6.7V3.9h20.2v33.6H653.3z M653.3,10.6h-6.7v6.7h6.7V10.6z"/>
	<path class="st4" d="M666.8,37.5V3.9h20.2v6.7h-13.4v20.2h13.4v6.7H666.8z"/>
	<path class="st4" d="M693.7,3.9h6.7V24h6.7v6.7h-6.7v6.7h-6.7V3.9z M707.1,24v-6.7h6.7V3.9h6.7v33.6h-6.7V24H707.1z"/>
	<path class="st4" d="M727.3,37.5V3.9h20.2v6.7H734v6.7h20.2v20.2H727.3z M747.4,24H734v6.7h13.4V24z"/>
	<path class="st4" d="M760.9,37.5V3.9H781v33.6H760.9z M774.3,10.6h-6.7v20.2h6.7V10.6z"/>
</g>
</svg>
